<svg id="_048-behance" data-name="048-behance" xmlns="http://www.w3.org/2000/svg" width="14.27" height="14.27" viewBox="0 0 14.27 14.27">
  <path id="Vector" d="M1.672,0H0V1.672H1.672A.836.836,0,1,0,1.672,0Z" transform="translate(3.372 5.045)"/>
  <path id="Vector-2" data-name="Vector" d="M1.672,0H0V1.672H1.672A.836.836,0,0,0,1.672,0Z" transform="translate(3.372 7.553)"/>
  <path id="Vector-3" data-name="Vector" d="M1.183,0A1.257,1.257,0,0,0,0,.836H2.366A1.257,1.257,0,0,0,1.183,0Z" transform="translate(8.461 6.717)"/>
  <path id="Vector-4" data-name="Vector" d="M12.152,0H2.09A2.093,2.093,0,0,0,0,2.09V12.18a2.093,2.093,0,0,0,2.09,2.09H12.152a2.117,2.117,0,0,0,2.118-2.09V2.09A2.117,2.117,0,0,0,12.152,0ZM7.971,4.209h3.345v.836H7.971ZM6.717,8.389a1.674,1.674,0,0,1-1.672,1.672H2.536V4.209H5.045A1.665,1.665,0,0,1,6.139,7.135,1.662,1.662,0,0,1,6.717,8.389Zm5.017,0H8.461a1.255,1.255,0,0,0,2.27.209l.723.419a2.091,2.091,0,1,1,.28-1.046Z"/>
</svg>
