<svg xmlns="http://www.w3.org/2000/svg" width="14.27" height="14.27" viewBox="0 0 14.27 14.27">
  <g id="_022-dribbble" data-name="022-dribbble" transform="translate(0 0)">
    <path id="Vector" d="M6.311,3.205a3.038,3.038,0,0,0,.78-1.519A7.1,7.1,0,0,0,2.537,0,7.06,7.06,0,0,0,0,.476,18.22,18.22,0,0,1,3.291,5.06,7.461,7.461,0,0,0,6.311,3.205Z" transform="translate(4.626 0)"/>
    <path id="Vector-2" data-name="Vector" d="M3.269,1.406A8.2,8.2,0,0,1,0,3.462c.169.371.325.75.471,1.134A10.29,10.29,0,0,1,2.635,4.36a10.167,10.167,0,0,1,3.337.56c0-.048.007-.094.007-.142A7.071,7.071,0,0,0,4.119,0,4.146,4.146,0,0,1,3.269,1.406Z" transform="translate(8.291 2.357)"/>
    <path id="Vector-3" data-name="Vector" d="M0,4.789a16.56,16.56,0,0,0,2.819.248,15.189,15.189,0,0,0,4.13-.566A17.3,17.3,0,0,0,3.645,0,7.257,7.257,0,0,0,0,4.789Z" transform="translate(0.163 0.845)"/>
    <path id="Vector-4" data-name="Vector" d="M5.148.585A9.288,9.288,0,0,0,1.883,0,9.511,9.511,0,0,0,0,.19,20.677,20.677,0,0,1,1.037,6.084,7.161,7.161,0,0,0,5.148.585Z" transform="translate(9.043 7.553)"/>
    <path id="Vector-5" data-name="Vector" d="M0,1.053a7.2,7.2,0,0,0,2.633,5.5A6.044,6.044,0,0,1,4.114,3.44,8.4,8.4,0,0,1,7.949,1.077C7.807.711,7.652.353,7.489,0A15.939,15.939,0,0,1,2.982.635,17.4,17.4,0,0,1,.034.377C.013.6,0,.825,0,1.053Z" transform="translate(0 6.082)"/>
    <path id="Vector-6" data-name="Vector" d="M1.325,2.133A5.051,5.051,0,0,0,0,5.244,7.056,7.056,0,0,0,3.75,6.325a7.083,7.083,0,0,0,2.082-.312A19.855,19.855,0,0,0,4.815,0,7.566,7.566,0,0,0,1.325,2.133Z" transform="translate(3.413 7.945)"/>
  </g>
</svg>
