<svg id="_045-linkedin" data-name="045-linkedin" xmlns="http://www.w3.org/2000/svg" width="14.27" height="14.27" viewBox="0 0 14.27 14.27">
  <path id="Vector" d="M12.18,0H2.09A2.093,2.093,0,0,0,0,2.09V12.18a2.093,2.093,0,0,0,2.09,2.09H12.18a2.093,2.093,0,0,0,2.09-2.09V2.09A2.093,2.093,0,0,0,12.18,0ZM5.045,11.316H3.372V5.463H5.045Zm0-6.689H3.372V2.954H5.045ZM10.9,11.316H9.226V7.971a.836.836,0,1,0-1.672,0v3.345H5.881V5.463H7.553v.315a3.625,3.625,0,0,1,1.254-.315A2.189,2.189,0,0,1,10.9,7.684Z"/>
</svg>
