<svg xmlns="http://www.w3.org/2000/svg" width="14.27" height="11.679" viewBox="0 0 14.27 11.679">
  <g id="_043-twitter" data-name="043-twitter" transform="translate(0 -1.31)">
    <path id="Vector" d="M5.324,11.679a12.244,12.244,0,0,1-1.891-.15,8.876,8.876,0,0,1-2.587-.942L0,10.125l.915-.3c1-.329,1.609-.533,2.363-.853A3.143,3.143,0,0,1,1.662,7.1l-.213-.646.175.027a3.176,3.176,0,0,1-.4-.49A3.011,3.011,0,0,1,.716,4.2l.04-.564.338.131a3.158,3.158,0,0,1-.306-.858A3.264,3.264,0,0,1,1.135.71L1.43.17l.394.473A7.243,7.243,0,0,0,6.516,3.285a2.807,2.807,0,0,1,.17-1.491A2.792,2.792,0,0,1,7.821.492,3.409,3.409,0,0,1,9.8.006a3.16,3.16,0,0,1,1.943.8A6.521,6.521,0,0,0,12.453.57c.156-.059.333-.125.554-.2l.815-.281-.532,1.518L13.4,1.6l.871-.039-.515.7c-.03.04-.037.052-.047.068-.041.062-.093.14-.8,1.083a1.33,1.33,0,0,0-.249.866,8.193,8.193,0,0,1-.447,3.3,5.832,5.832,0,0,1-1.565,2.319,6.914,6.914,0,0,1-3.277,1.584,10.089,10.089,0,0,1-2.047.2Z" transform="translate(0 1.31)"/>
  </g>
</svg>
