<svg xmlns="http://www.w3.org/2000/svg" width="14.27" height="11.732" viewBox="0 0 14.27 11.732">
  <g id="_027-vimeo" data-name="027-vimeo" transform="translate(0 -1.271)">
    <path id="Vector" d="M0,2.88.194,3.6l.015-.01a2.041,2.041,0,0,1,1.06-.47,1.017,1.017,0,0,1,.839.5c1.218,1.811,2.16,8.107,4.439,8.107,2.249,0,7.9-6.865,7.72-9.963A1.693,1.693,0,0,0,12.429,0a3.439,3.439,0,0,0-3.12,2.249A1.371,1.371,0,0,1,11.058,3.78c-.094,1.252-2.19,4.486-3.165,4.486-1.667,0-2.447-5.632-3-7.342A1.05,1.05,0,0,0,3.834.233,1.726,1.726,0,0,0,2.775.626C2.038,1.21,1.287,1.811.558,2.417Z" transform="translate(0 1.271)"/>
  </g>
</svg>
